<svg width="18" height="24" viewBox="0 0 18 24" fill="none" xmlns="http://www.w3.org/2000/svg">
<path d="M12.8512 8.981H8.26325V0H12.8512C15.3272 0 17.3412 2.014 17.3412 4.49C17.3412 6.966 15.3272 8.981 12.8512 8.981V8.981ZM9.73425 7.51H12.8512C14.5162 7.51 15.8703 6.155 15.8703 4.491C15.8703 2.827 14.5152 1.472 12.8512 1.472H9.73425V7.51V7.51ZM9.73425 8.981H5.14725C2.67125 8.981 0.65725 6.967 0.65725 4.491C0.65725 2.015 2.67125 0 5.14725 0H9.73525V8.981H9.73425ZM5.14725 1.471C3.48225 1.471 2.12825 2.826 2.12825 4.49C2.12825 6.154 3.48225 7.51 5.14725 7.51H8.26425V1.471H5.14725ZM9.73425 16.49H5.14725C2.67125 16.49 0.65725 14.476 0.65725 12C0.65725 9.524 2.67125 7.51 5.14725 7.51H9.73525V16.49H9.73425ZM5.14725 8.981C3.48225 8.981 2.12825 10.336 2.12825 12C2.12825 13.664 3.48325 15.019 5.14725 15.019H8.26425V8.981H5.14725ZM5.17125 24C2.68225 24 0.65625 21.986 0.65625 19.51C0.65625 17.034 2.67025 15.02 5.14625 15.02H9.73425V19.461C9.73425 21.964 7.68725 24 5.17125 24V24ZM5.14725 16.49C4.34689 16.4911 3.57961 16.8095 3.01366 17.3754C2.44772 17.9414 2.12931 18.7086 2.12825 19.509C2.12825 21.174 3.49325 22.528 5.17225 22.528C6.87725 22.528 8.26525 21.152 8.26525 19.46V16.49H5.14725V16.49ZM12.8512 16.49H12.7533C10.2773 16.49 8.26325 14.476 8.26325 12C8.26325 9.524 10.2773 7.51 12.7533 7.51H12.8512C15.3272 7.51 17.3412 9.524 17.3412 12C17.3412 14.476 15.3272 16.49 12.8512 16.49V16.49ZM12.7542 8.981C11.0892 8.981 9.73525 10.336 9.73525 12C9.73525 13.664 11.0902 15.019 12.7542 15.019H12.8522C14.5172 15.019 15.8713 13.664 15.8713 12C15.8713 10.336 14.5162 8.981 12.8522 8.981H12.7542V8.981Z" fill="#F4FAFF"/>
</svg>
