<svg width="22" height="24" viewBox="0 0 22 24" fill="none" xmlns="http://www.w3.org/2000/svg">
<path d="M10.9994 24.0002C10.6784 24.0002 10.3584 23.9163 10.0774 23.7533L7.14138 22.0163C6.70338 21.7713 6.91738 21.6842 7.06138 21.6332C7.64638 21.4302 7.76437 21.3832 8.38937 21.0292C8.45437 20.9922 8.54038 21.0062 8.60738 21.0462L10.8634 22.3853C10.9454 22.4303 11.0604 22.4303 11.1354 22.3853L19.9304 17.3092C20.0124 17.2622 20.0644 17.1682 20.0644 17.0712V6.92125C20.0644 6.82225 20.0114 6.72925 19.9274 6.67925L11.1364 1.60725C11.0554 1.56025 10.9474 1.56025 10.8654 1.60725L2.07638 6.68025C1.99138 6.72925 1.93738 6.82525 1.93738 6.92125V17.0712C1.93738 17.1682 1.99138 17.2602 2.07638 17.3062L4.48538 18.6982C5.79238 19.3522 6.59338 18.5823 6.59338 17.8083V7.78725C6.59338 7.64525 6.70737 7.53425 6.84937 7.53425H7.96438C8.10338 7.53425 8.21938 7.64625 8.21938 7.78725V17.8083C8.21938 19.5533 7.26937 20.5532 5.61537 20.5532C5.10737 20.5532 4.70637 20.5533 3.58937 20.0023L1.28137 18.6752C0.711375 18.3462 0.359375 17.7302 0.359375 17.0712V6.92125C0.359375 6.26225 0.712375 5.64625 1.28137 5.31825L10.0764 0.23625C10.6334 -0.07875 11.3724 -0.07875 11.9244 0.23625L20.7184 5.31825C21.2884 5.64725 21.6424 6.26225 21.6424 6.92125V17.0712C21.6424 17.7302 21.2884 18.3442 20.7184 18.6752L11.9244 23.7533C11.6444 23.9163 11.3254 24.0002 10.9994 24.0002ZM18.1004 13.9932C18.1004 12.0932 16.8164 11.5872 14.1134 11.2302C11.3824 10.8692 11.1044 10.6823 11.1044 10.0433C11.1044 9.51525 11.3394 8.81025 13.3624 8.81025C15.1694 8.81025 15.8354 9.19925 16.1094 10.4172C16.1334 10.5322 16.2384 10.6163 16.3564 10.6163H17.4974C17.5684 10.6163 17.6354 10.5852 17.6834 10.5352C17.7314 10.4812 17.7574 10.4122 17.7504 10.3392C17.5734 8.24125 16.1794 7.26325 13.3624 7.26325C10.8544 7.26325 9.35838 8.32125 9.35838 10.0962C9.35838 12.0212 10.8464 12.5533 13.2534 12.7913C16.1334 13.0733 16.3564 13.4943 16.3564 14.0603C16.3564 15.0433 15.5674 15.4622 13.7144 15.4622C11.3874 15.4622 10.8754 14.8783 10.7034 13.7203C10.6834 13.5963 10.5774 13.5052 10.4504 13.5052H9.31338C9.17238 13.5052 9.05937 13.6173 9.05937 13.7583C9.05937 15.2403 9.86538 17.0063 13.7144 17.0063C16.5024 17.0073 18.1004 15.9102 18.1004 13.9932Z" fill="#F4FAFF"/>
</svg>
