<svg width="24" height="24" viewBox="0 0 24 24" fill="none" xmlns="http://www.w3.org/2000/svg">
<g clip-path="url(#clip0_711_188)">
<path d="M20.6505 13.347C20.6798 13.3462 20.7143 13.3455 20.7495 13.3455C21.375 13.3455 21.9668 13.491 22.4918 13.7505L22.4685 13.74C22.947 13.9732 23.34 14.3182 23.6242 14.7412L23.631 14.7517C23.8552 15.0787 23.9887 15.483 23.9887 15.918C23.9887 15.9495 23.988 15.981 23.9865 16.0118V16.0073C23.9633 16.4415 23.766 16.8248 23.463 17.0933L23.4615 17.0947C23.2957 17.2575 23.0955 17.385 22.8727 17.466L22.8615 17.4697C22.7365 17.4947 22.6677 17.476 22.6552 17.4135C22.6427 17.351 22.699 17.2823 22.824 17.2073C23.163 17.0018 23.4082 16.6702 23.4975 16.2795L23.4998 16.2698C23.502 16.2383 23.5035 16.2015 23.5035 16.164C23.5035 15.9308 23.448 15.7103 23.3497 15.5153L23.3535 15.5235C23.1907 15.1837 22.9477 14.9048 22.6485 14.703L22.641 14.6985C22.1932 14.4105 21.6562 14.2215 21.0787 14.1743L21.0667 14.1735C20.8702 14.1442 20.6437 14.1277 20.4127 14.1277C19.812 14.1277 19.2382 14.241 18.7102 14.4472L18.7418 14.436C18.8505 14.6903 18.9187 14.985 18.9285 15.294V15.2977C18.9165 15.9315 18.576 16.4827 18.0697 16.7902L18.0615 16.7947C17.829 16.9597 17.5635 17.1045 17.2808 17.217L17.2545 17.226C17.0827 17.31 16.881 17.3588 16.668 17.3588C16.6432 17.3588 16.6192 17.358 16.5952 17.3565H16.599C16.1245 17.257 16.012 16.8445 16.2615 16.119C16.3702 15.8033 16.5225 15.5295 16.7152 15.2888L16.7108 15.294C16.9575 14.9715 17.2282 14.6888 17.5275 14.4383L17.5357 14.4315L17.4622 14.322C17.325 14.088 17.199 13.8157 17.0977 13.5315L17.0872 13.497C17.0122 13.247 16.9497 13.0097 16.8997 12.7852L16.8622 12.5227L16.4872 13.2345C16.1622 13.8345 15.8497 14.3592 15.5497 14.8087L15.4373 14.9962C15.5633 15.3022 15.6562 15.657 15.6982 16.0275L15.6997 16.0463C15.7027 16.0815 15.7042 16.1235 15.7042 16.1655C15.7042 16.734 15.4237 17.2365 14.9932 17.5433L14.988 17.547C14.7825 17.6737 14.5372 17.805 14.283 17.922L14.238 17.9407C13.9732 18.0555 13.6665 18.1305 13.3447 18.147H13.338C13.3133 18.1485 13.284 18.15 13.2548 18.15C13.0673 18.15 12.8895 18.1072 12.7305 18.0315L12.738 18.0345C12.6427 17.9527 12.5827 17.8327 12.5827 17.6985C12.5827 17.6302 12.5985 17.565 12.6262 17.5073L12.6248 17.5103C12.9248 17.0895 13.2202 16.7235 13.5345 16.374L13.5247 16.3853L14.3497 15.336L14.2005 14.9985C14.0805 14.778 13.9657 14.5177 13.8735 14.2477L13.863 14.2118C13.788 13.9618 13.7255 13.7245 13.6755 13.5L13.638 13.2375L13.263 14.1375C12.9635 14.837 12.6885 15.4368 12.438 15.9368C12.0645 16.6868 11.752 17.2617 11.5005 17.6617L11.4255 17.7742C11.126 18.2487 10.8385 18.486 10.563 18.486C10.2875 18.486 10.1008 18.311 10.0028 17.961C9.93075 17.703 9.88875 17.4068 9.88875 17.1008C9.88875 17.0738 9.88875 17.0468 9.8895 17.0198V17.0235L9.9645 16.4985V16.536C9.7645 17.0105 9.5645 17.4478 9.3645 17.8478C9.23175 18.1073 9.09525 18.3285 8.94225 18.537L8.952 18.5228C8.7975 18.6848 8.58 18.7853 8.33925 18.7853C8.337 18.7853 8.3355 18.7853 8.33325 18.7853C8.3175 18.7868 8.2995 18.7867 8.2815 18.7867C8.09175 18.7867 7.91925 18.7147 7.78875 18.597L7.7895 18.5978C7.52775 18.3293 7.3335 17.994 7.233 17.6198L7.22925 17.604C7.10625 17.2628 7.03575 16.8683 7.03575 16.4573C7.03575 16.404 7.03725 16.3515 7.0395 16.2997V16.3073C7.09875 15.7103 7.218 15.1635 7.39275 14.6422L7.377 14.6955L6.02775 15.483V15.5205C6.2235 15.927 6.33825 16.404 6.33825 16.908C6.33825 17.0003 6.3345 17.0918 6.327 17.1818L6.32775 17.1697C6.288 17.9422 6.04125 18.6495 5.643 19.2473L5.65275 19.2322C5.235 19.8952 4.63275 20.4075 3.91725 20.7037L3.8925 20.7128C3.48975 20.8935 3.01875 20.9993 2.52375 20.9993C2.21025 20.9993 1.90575 20.9572 1.61775 20.8777L1.64175 20.883C1.40325 20.8027 1.20825 20.6437 1.0845 20.4382L1.08225 20.4338C0.9075 20.1803 0.79725 19.8705 0.78 19.5367V19.5322C0.77175 19.4565 0.76725 19.3687 0.76725 19.2795C0.76725 18.8947 0.855 18.5303 1.01175 18.2055L1.005 18.2205C1.4355 17.4863 2.031 16.8915 2.742 16.473L2.7645 16.461C3.26775 16.1122 3.846 15.774 4.44975 15.4792L4.52925 15.444L4.71675 15.3315C4.49175 15.1565 4.07925 14.8565 3.47925 14.4315C2.6775 13.8945 1.98075 13.3522 1.32375 12.7657L1.3425 12.7823C0.70725 12.2355 0.2445 11.505 0.03675 10.6732L0.03075 10.6447C0.01125 10.5292 0 10.3965 0 10.2615C0 9.8385 0.10875 9.441 0.29925 9.09525L0.29325 9.108C0.71325 8.205 1.29525 7.44375 2.00925 6.83175L2.01825 6.82425C2.79075 6.0945 3.66525 5.45925 4.61475 4.94475L4.68 4.9125C5.52825 4.42275 6.519 3.9675 7.55175 3.60225L7.67925 3.56325C8.6385 3.21225 9.74625 3.00675 10.9013 3.003H10.9028C10.9553 3.0015 11.0175 3 11.0798 3C12.0105 3 12.891 3.21525 13.674 3.5985L13.6395 3.58275C14.3145 3.89025 14.82 4.46925 15.0225 5.17725L15.027 5.19525C15.0892 5.43675 15.1245 5.71425 15.1245 6C15.1245 6.474 15.0262 6.9255 14.85 7.335L14.8582 7.31325C14.5372 8.091 14.0805 8.75325 13.5105 9.2985L13.5082 9.30075C12.9307 9.873 12.2385 10.3305 11.4698 10.6357L11.4285 10.65C10.623 10.9957 9.68775 11.2132 8.706 11.2492L8.69175 11.25C8.54775 11.2665 8.38125 11.2755 8.2125 11.2755C7.7685 11.2755 7.34025 11.2117 6.93525 11.0925L6.9675 11.1007C6.60525 10.9852 6.2925 10.806 6.027 10.5735L6.03 10.5757C5.844 10.4242 5.6925 10.2375 5.5845 10.0252L5.58 10.0155C5.505 9.8155 5.49875 9.69675 5.56125 9.65925C5.62375 9.62175 5.6675 9.6155 5.6925 9.6405L5.88 9.828C6.08925 10.0223 6.339 10.1752 6.615 10.2727L6.63 10.2773C7.0095 10.4093 7.4475 10.4857 7.90275 10.4857C8.049 10.4857 8.193 10.4782 8.33475 10.4625L8.3175 10.464C9.531 10.3207 10.6253 9.90675 11.5695 9.28425L11.5417 9.3015C12.3397 8.82675 12.9855 8.17425 13.44 7.3965L13.4535 7.371C13.6792 7.0395 13.8142 6.63 13.8142 6.189C13.8142 5.91825 13.7632 5.65875 13.6702 5.42025L13.6755 5.4345C13.395 4.99125 12.9412 4.67925 12.4117 4.593L12.4012 4.5915C11.9902 4.49025 11.5178 4.43175 11.0325 4.43175C10.6418 4.43175 10.2593 4.46925 9.8895 4.54125L9.927 4.53525C8.66175 4.76325 7.53075 5.154 6.4875 5.691L6.55575 5.65875C3.48175 7.20875 1.8945 8.796 1.794 10.4205V10.4572C1.794 11.112 2.05125 11.7067 2.4705 12.1462L2.46975 12.1455C2.9475 12.6765 3.4755 13.1453 4.05225 13.5503L4.0815 13.5698C4.60725 13.9628 5.07225 14.3685 5.505 14.8065L5.50575 14.808L5.58075 14.883L7.98075 13.5713C8.2545 13.1753 8.58375 12.8407 8.96175 12.5707L8.97375 12.5625C9.27375 12.3105 9.65475 12.1463 10.0725 12.1133L10.0793 12.1125C10.0943 12.111 10.1115 12.111 10.1295 12.111C10.4093 12.111 10.6493 12.2797 10.7528 12.5212L10.7543 12.5258C10.833 12.702 10.8788 12.9082 10.8788 13.125C10.8788 13.191 10.8743 13.2562 10.866 13.3207L10.8668 13.3133L10.794 13.683L10.9065 13.608C10.9845 13.5488 11.0828 13.5135 11.1893 13.5135C11.2568 13.5135 11.3205 13.5278 11.3783 13.5533L11.3753 13.5518C11.5193 13.5893 11.6235 13.7182 11.6235 13.8712C11.6235 13.8975 11.6205 13.923 11.6145 13.9478L11.6153 13.9455L11.5028 14.358C11.2778 15.2575 11.128 15.9073 11.0535 16.3073C11.016 16.437 10.995 16.5862 10.995 16.7407C10.995 16.773 10.9958 16.8045 10.998 16.836V16.8315C11.0105 16.9815 11.0293 17.0565 11.0543 17.0565C11.0793 17.0565 11.129 16.9815 11.2035 16.8315L11.316 16.569C11.341 16.569 11.341 16.5815 11.316 16.6065L11.7285 15.744C12.7035 13.595 13.2282 12.395 13.3027 12.144L13.5277 11.4323C13.5527 11.3823 13.6528 11.3325 13.8278 11.283C14.0055 11.235 14.2088 11.2072 14.4188 11.2072C14.436 11.2072 14.4532 11.2073 14.4697 11.208H14.4675C14.8175 11.208 14.9925 11.2955 14.9925 11.4705L14.955 11.658C14.871 11.889 14.7877 12.1777 14.7232 12.4732L14.715 12.5205C14.7 12.6173 14.691 12.7283 14.691 12.8423C14.691 12.9938 14.706 13.1415 14.7352 13.2848L14.733 13.2705L14.7705 13.4197C14.847 13.7325 14.9632 14.007 15.1155 14.2575L15.108 14.2448C15.4075 13.7453 15.695 13.233 15.9705 12.708C16.188 12.3458 16.3905 11.9257 16.5532 11.4862L16.5705 11.4337C16.6267 11.151 16.6912 10.9125 16.77 10.68L16.758 10.722C16.783 10.647 16.8897 10.5908 17.0782 10.5533C17.2567 10.5173 17.4615 10.497 17.6707 10.497H17.6978H17.6962C18.0462 10.497 18.233 10.5845 18.2565 10.7595L18.1815 10.9088C18.0922 11.1608 18.0142 11.4637 17.9617 11.775L17.9572 11.8087C17.9505 11.8815 17.946 11.9655 17.946 12.051C17.946 12.2302 17.964 12.4058 17.9977 12.5753L17.9948 12.558V12.7072C18.081 13.0342 18.2093 13.3215 18.3773 13.5818L18.3698 13.5698L18.4822 13.8322C19.1085 13.5247 19.845 13.3448 20.6235 13.3448H20.6527H20.6512L20.6505 13.347ZM4.57125 18.7867C5.0925 18.2482 5.41425 17.5132 5.41425 16.7032C5.41425 16.3905 5.36625 16.089 5.27775 15.8055L5.28375 15.8265L4.68375 16.2015C4.07175 16.5502 3.54225 16.9395 3.063 17.382L3.069 17.3768C2.70525 17.7113 2.43675 18.144 2.30475 18.6323L2.30025 18.651C2.18775 19.1135 2.244 19.4135 2.469 19.551C2.60625 19.614 2.7675 19.6508 2.93625 19.6508C3.12075 19.6508 3.2955 19.6072 3.44925 19.5292L3.4425 19.5322C3.888 19.3702 4.26525 19.113 4.56525 18.7838L4.5675 18.7815L4.57125 18.7867ZM9.594 15.3337C9.719 15.0087 9.8565 14.6213 10.0065 14.1713C10.2065 13.5713 10.2753 13.2215 10.2128 13.122C10.1503 13.0225 10.0315 13.01 9.8565 13.0845C9.648 13.1858 9.47325 13.3245 9.33375 13.4948L9.3315 13.4977C9.1755 13.695 9.027 13.9155 8.895 14.1472L8.8815 14.1728C8.73 14.421 8.60175 14.7068 8.5125 15.0098L8.50575 15.0353C8.361 15.4275 8.277 15.8813 8.277 16.3538C8.277 16.4175 8.2785 16.4805 8.2815 16.5435V16.5345C8.3065 17.034 8.3865 17.3028 8.5215 17.3408C8.6565 17.3788 8.81275 17.1975 8.99025 16.797C9.162 16.4872 9.315 16.1273 9.429 15.75L9.4395 15.7095C9.514 15.5325 9.565 15.4072 9.5925 15.3337H9.594ZM13.7535 17.3212C14.2732 17.088 14.6392 16.5968 14.6902 16.0155L14.691 16.0095V15.972L14.2785 16.497L13.5292 17.322C13.518 17.331 13.5105 17.3445 13.5105 17.3595C13.5105 17.3745 13.518 17.388 13.5285 17.397C13.5525 17.4215 13.6275 17.3965 13.7535 17.322V17.3212ZM16.9777 16.6088C17.5447 16.4468 17.9528 15.933 17.9528 15.3248C17.9528 15.315 17.9528 15.3052 17.9528 15.2955V15.297C17.9453 15.147 17.9182 15.006 17.874 14.8725L17.877 14.8838C17.5852 15.1433 17.346 15.4538 17.1727 15.804L17.1645 15.8212C16.939 16.2707 16.876 16.5327 16.9755 16.6072L16.9777 16.6088Z" fill="white"/>
</g>
<defs>
<clipPath id="clip0_711_188">
<rect width="24" height="24" fill="white"/>
</clipPath>
</defs>
</svg>
