<svg width="25" height="25" viewBox="0 0 25 25" fill="none" xmlns="http://www.w3.org/2000/svg">
<path d="M23.2716 2.60067L18.3057 0.211225C18.025 0.0760778 17.7093 0.0315349 17.4023 0.0837649C17.0952 0.135995 16.8119 0.282413 16.5918 0.502744L7.08223 9.17793L2.94066 6.03355C2.75381 5.89183 2.52325 5.81997 2.28897 5.83043C2.05468 5.8409 1.83145 5.93303 1.65798 6.09085L0.329058 7.29914C0.225499 7.39328 0.142739 7.50801 0.0860754 7.63598C0.0294122 7.76395 9.48565e-05 7.90234 2.29801e-07 8.04229C-9.43969e-05 8.18225 0.0290358 8.32068 0.0855259 8.44872C0.142016 8.57677 0.224621 8.69161 0.328052 8.78589L3.91976 12.063L0.328052 15.34C0.224621 15.4343 0.142016 15.5491 0.0855259 15.6772C0.0290358 15.8052 -9.43969e-05 15.9437 2.29801e-07 16.0836C9.48565e-05 16.2236 0.0294122 16.362 0.0860754 16.4899C0.142739 16.6179 0.225499 16.7326 0.329058 16.8268L1.65898 18.0341C1.83245 18.1919 2.05569 18.284 2.28997 18.2945C2.52426 18.3049 2.75482 18.2331 2.94167 18.0914L7.08324 14.947L16.5928 23.6222C16.8127 23.8425 17.0958 23.989 17.4027 24.0412C17.7096 24.0935 18.0252 24.0489 18.3057 23.9137L23.2736 21.5242C23.5292 21.4009 23.7447 21.2079 23.8955 20.9675C24.0463 20.7271 24.1262 20.449 24.126 20.1652V3.95975C24.126 3.67574 24.0458 3.39749 23.8947 3.15705C23.7435 2.9166 23.5275 2.72374 23.2716 2.60067ZM18.0986 17.5395L10.883 12.063L18.0986 6.58643V17.5395V17.5395Z" fill="#F4FAFF"/>
</svg>
