<svg width="29" height="28" viewBox="0 0 29 28" fill="none" xmlns="http://www.w3.org/2000/svg">
<path d="M14.3555 0C6.42407 0 0 6.42766 0 14.3555C0 20.6994 4.11284 26.0791 9.81554 27.9752C10.5333 28.1104 10.7965 27.6666 10.7965 27.2849C10.7965 26.944 10.7845 26.0408 10.7786 24.8445C6.78535 25.7106 5.94316 22.9185 5.94316 22.9185C5.28999 21.2616 4.34611 20.819 4.34611 20.819C3.04575 19.929 4.4466 19.9469 4.4466 19.9469C5.88813 20.0474 6.64538 21.4255 6.64538 21.4255C7.92541 23.6207 10.0058 22.9867 10.8264 22.6194C10.9556 21.6911 11.3253 21.0583 11.7356 20.6994C8.54748 20.3405 5.19668 19.1059 5.19668 13.6054C5.19668 12.0382 5.75295 10.7582 6.67409 9.75334C6.51259 9.39086 6.0281 7.93139 6.7997 5.95393C6.7997 5.95393 8.00197 5.56872 10.7475 7.42536C11.8959 7.10595 13.1161 6.94804 14.3363 6.94086C15.5565 6.94804 16.7767 7.10595 17.9252 7.42536C20.6527 5.56872 21.855 5.95393 21.855 5.95393C22.6266 7.93139 22.1421 9.39086 21.9985 9.75334C22.9137 10.7582 23.47 12.0382 23.47 13.6054C23.47 19.1203 20.1144 20.3345 16.9203 20.6874C17.4227 21.1181 17.8893 21.9985 17.8893 23.3432C17.8893 25.2644 17.8713 26.8076 17.8713 27.2742C17.8713 27.651 18.1226 28.0996 18.8583 27.9561C24.6017 26.0731 28.7109 20.6898 28.7109 14.3555C28.7109 6.42766 22.2833 0 14.3555 0" fill="#082A5E"/>
</svg>
