<svg width="28" height="20" viewBox="0 0 28 20" fill="none" xmlns="http://www.w3.org/2000/svg">
<path d="M28 2.72075C28 1.99925 27.7133 1.3071 27.2031 0.7969C26.6929 0.2867 26.0008 0 25.2793 0H2.72075C1.99925 0 1.3071 0.28672 0.7969 0.7969C0.2867 1.30708 0 1.99925 0 2.72075V16.6387C0 17.3602 0.28672 18.0524 0.7969 18.5626C1.30708 19.0728 1.99925 19.3595 2.72075 19.3595H25.2793C26.0008 19.3595 26.6929 19.0728 27.2031 18.5626C27.7133 18.0524 28 17.3602 28 16.6387V2.72075ZM24.0762 16.6662C23.908 16.8178 23.6486 16.8043 23.497 16.6362L17.5061 9.98767L14.2734 12.9262L14.2604 12.9371L14.2412 12.9523L14.2264 12.9627L14.2067 12.9752L14.1914 12.9834L14.1701 12.9937L14.1549 13.0004L14.1318 13.0092L14.1176 13.0141L14.0924 13.0207L14.0787 13.024L14.0502 13.0283C14.0463 13.0283 14.0426 13.0213 14.0393 13.0213C14.0262 13.0213 14.0131 13.0146 13.9998 13.0146C13.9867 13.0146 13.9736 13.0223 13.9604 13.0213C13.9565 13.0213 13.9533 13.0246 13.9494 13.024C13.9455 13.0234 13.9303 13.024 13.9209 13.024H13.9078L13.8826 13.018L13.8684 13.0137L13.8449 13.0049L13.8301 12.9982L13.8088 12.9879L13.7936 12.9797L13.7738 12.9672L13.759 12.9568L13.7399 12.9416L13.7268 12.9307L10.55 10.0404L4.50102 16.6394C4.34711 16.8021 4.09125 16.8111 3.92602 16.6599C3.76098 16.5088 3.7477 16.2529 3.89614 16.0853L9.94064 9.48432L3.92514 4.01032C3.75736 3.85778 3.74506 3.59841 3.8974 3.43082C4.04975 3.26324 4.30932 3.25074 4.4769 3.40328L13.9999 12.0683L23.5254 3.40328C23.6932 3.25074 23.9526 3.26324 24.1049 3.43082C24.2572 3.5984 24.2449 3.85778 24.0774 4.01032L18.1129 9.43632L24.1059 16.0883C24.2574 16.2567 24.2439 16.5159 24.0758 16.6676L24.0762 16.6662Z" fill="#082A5E"/>
</svg>
